<svg xmlns="http://www.w3.org/2000/svg" viewBox="0 0 16 16" width="16" height="16">
  <path fill="#0366d6" d="M8 0C3.58 0 0 3.58 0 8c0 3.53 2.29 6.53 5.47 7.59.4.07.55-.17.55-.39v-1.43c-2.22.48-2.69-.94-2.69-.94-.36-.91-.88-1.15-.88-1.15-.72-.49.06-.48.06-.48.8.06 1.2.84 1.2 1.56 1.04.3.51.88.88 1.57.88 1.88 0 3.31-1.43 3.31-3.19 0-2.17-1.72-3.19-3.31-3.19-1.07 0-2.06.5-2.6 1.28-.2-.5-.73-.89-1.34-.89-1.01 0-1.83.83-1.83 1.83s.82 1.83 1.83 1.83c1.01 0 1.84-.82 1.84-1.83 0-.17-.03-.33-.08-.49 1.5-.18 2.64-.98 2.64-2.28 0-1.25-.96-2.25-2.24-2.25zm7.47 6.28c0 2.41-1.63 4.47-3.87 4.47-1.12 0-2.12-.44-2.84-1.16-.26.17-.58.34-.89.49.39-.74.68-1.57.68-2.43 0-1.96-1.52-3.56-3.37-3.56-1.13 0-2.16.44-2.9 1.16-.37-.79-.61-1.61-.73-2.48-1.17-.42-2.49-.75-3.79-.75-4.42 0-8 3.58-8 8 0 1.16.34 2.25.91 3.18-1.36.42-2.55 1.13-3.62 2.06-.16.16-.12.42.12.53 1.14.56 2.28.93 3.49 1.12.31.14.62.26.93.4.04.02.07.06.11.09.1-.19.23-.38.38-.58-.2-.51-.28-1.06-.28-1.62 0-2.61 2.1-4.75 4.67-4.75s4.67 2.14 4.67 4.75c0 .58-.1 1.14-.28 1.65-.15.2-.29.39-.39.58-.04-.03-.07-.07-.11-.09-.31-.14-.62-.26-.93-.4-1.21-.19-2.35-.56-3.49-1.12-1.07-.93-1.89-2.22-2.41-3.62-.34-.91-.41-1.89-.14-2.86 1.38-.42 2.61-.83 3.76-1.34.5.96 1.02 1.96 1.58 2.92 1.3 1.86 2.75 3.39 4.4 4.32 2.12.81 4.46.86 6.47-.12 2.23-.93 4.06-2.95 4.06-5.36-.01-1.5-.64-3.01-1.91-4.2z"/>
</svg>

